%TF.GenerationSoftware,KiCad,Pcbnew,(6.0.4)*%
%TF.CreationDate,2022-10-25T23:06:37-04:00*%
%TF.ProjectId,battpack,62617474-7061-4636-9b2e-6b696361645f,v1.0.0*%
%TF.SameCoordinates,Original*%
%TF.FileFunction,Legend,Bot*%
%TF.FilePolarity,Positive*%
%FSLAX46Y46*%
G04 Gerber Fmt 4.6, Leading zero omitted, Abs format (unit mm)*
G04 Created by KiCad (PCBNEW (6.0.4)) date 2022-10-25 23:06:37*
%MOMM*%
%LPD*%
G01*
G04 APERTURE LIST*
%ADD10C,0.150000*%
%ADD11R,1.752600X1.752600*%
%ADD12C,1.752600*%
G04 APERTURE END LIST*
D10*
X-15547619Y-8059523D02*
X-16023809Y-7726190D01*
X-15547619Y-7488095D02*
X-16547619Y-7488095D01*
X-16547619Y-7869047D01*
X-16500000Y-7964285D01*
X-16452380Y-8011904D01*
X-16357142Y-8059523D01*
X-16214285Y-8059523D01*
X-16119047Y-8011904D01*
X-16071428Y-7964285D01*
X-16023809Y-7869047D01*
X-16023809Y-7488095D01*
%TO.C,PAD5*%
X16804761Y-5557142D02*
X16195238Y-5557142D01*
X16500000Y-5861904D02*
X16500000Y-5252380D01*
%TO.C,PAD6*%
X16804761Y5442857D02*
X16195238Y5442857D01*
%TO.C,PAD7*%
X-16195238Y5442857D02*
X-16804761Y5442857D01*
X-16500000Y5138095D02*
X-16500000Y5747619D01*
%TO.C,PAD8*%
X-16195238Y-5557142D02*
X-16804761Y-5557142D01*
%TO.C,T3*%
X17200000Y-1950000D02*
X17200000Y1950000D01*
X17200000Y0D02*
X17200000Y3300000D01*
X17200000Y3300000D02*
X14350000Y3300000D01*
X14350000Y3300000D02*
X14350000Y-3300000D01*
X14350000Y-3300000D02*
X17200000Y-3300000D01*
X17200000Y0D02*
X17200000Y-3300000D01*
%TO.C,T4*%
X-17200000Y1950000D02*
X-17200000Y-1950000D01*
X-17200000Y0D02*
X-17200000Y-3300000D01*
X-17200000Y-3300000D02*
X-14350000Y-3300000D01*
X-14350000Y-3300000D02*
X-14350000Y3300000D01*
X-14350000Y3300000D02*
X-17200000Y3300000D01*
X-17200000Y0D02*
X-17200000Y3300000D01*
%TD*%
D11*
%TO.C,*%
X-13970000Y-7620000D03*
D12*
X-11430000Y-7620000D03*
X-8890000Y-7620000D03*
X-6350000Y-7620000D03*
X-3810000Y-7620000D03*
X-1270000Y-7620000D03*
X1270000Y-7620000D03*
X3810000Y-7620000D03*
X6350000Y-7620000D03*
X8890000Y-7620000D03*
X11430000Y-7620000D03*
X13970000Y-7620000D03*
X13970000Y7620000D03*
X11430000Y7620000D03*
X8890000Y7620000D03*
X6350000Y7620000D03*
X3810000Y7620000D03*
X1270000Y7620000D03*
X-1270000Y7620000D03*
X-3810000Y7620000D03*
X-6350000Y7620000D03*
X-8890000Y7620000D03*
X-11430000Y7620000D03*
X-13970000Y7620000D03*
%TD*%
M02*
