%TF.GenerationSoftware,KiCad,Pcbnew,(6.0.4)*%
%TF.CreationDate,2022-10-25T22:36:08-04:00*%
%TF.ProjectId,battpack,62617474-7061-4636-9b2e-6b696361645f,v1.0.0*%
%TF.SameCoordinates,Original*%
%TF.FileFunction,Soldermask,Bot*%
%TF.FilePolarity,Negative*%
%FSLAX46Y46*%
G04 Gerber Fmt 4.6, Leading zero omitted, Abs format (unit mm)*
G04 Created by KiCad (PCBNEW (6.0.4)) date 2022-10-25 22:36:08*
%MOMM*%
%LPD*%
G01*
G04 APERTURE LIST*
G04 Aperture macros list*
%AMRoundRect*
0 Rectangle with rounded corners*
0 $1 Rounding radius*
0 $2 $3 $4 $5 $6 $7 $8 $9 X,Y pos of 4 corners*
0 Add a 4 corners polygon primitive as box body*
4,1,4,$2,$3,$4,$5,$6,$7,$8,$9,$2,$3,0*
0 Add four circle primitives for the rounded corners*
1,1,$1+$1,$2,$3*
1,1,$1+$1,$4,$5*
1,1,$1+$1,$6,$7*
1,1,$1+$1,$8,$9*
0 Add four rect primitives between the rounded corners*
20,1,$1+$1,$2,$3,$4,$5,0*
20,1,$1+$1,$4,$5,$6,$7,0*
20,1,$1+$1,$6,$7,$8,$9,0*
20,1,$1+$1,$8,$9,$2,$3,0*%
G04 Aperture macros list end*
%ADD10C,1.100000*%
%ADD11RoundRect,0.050000X-0.625000X0.450000X-0.625000X-0.450000X0.625000X-0.450000X0.625000X0.450000X0*%
%ADD12RoundRect,0.050000X-0.450000X0.450000X-0.450000X-0.450000X0.450000X-0.450000X0.450000X0.450000X0*%
%ADD13RoundRect,0.050000X1.000000X0.500000X-1.000000X0.500000X-1.000000X-0.500000X1.000000X-0.500000X0*%
%ADD14RoundRect,0.050000X0.625000X-0.450000X0.625000X0.450000X-0.625000X0.450000X-0.625000X-0.450000X0*%
%ADD15RoundRect,0.050000X0.450000X-0.450000X0.450000X0.450000X-0.450000X0.450000X-0.450000X-0.450000X0*%
%ADD16RoundRect,0.050000X-1.000000X-0.500000X1.000000X-0.500000X1.000000X0.500000X-1.000000X0.500000X0*%
%ADD17RoundRect,0.050000X-0.876300X-0.876300X0.876300X-0.876300X0.876300X0.876300X-0.876300X0.876300X0*%
%ADD18C,1.852600*%
G04 APERTURE END LIST*
D10*
%TO.C,T1*%
X15850000Y-1500000D03*
X15850000Y1500000D03*
%TD*%
%TO.C,T2*%
X-15850000Y1500000D03*
X-15850000Y-1500000D03*
%TD*%
%TO.C,T3*%
X15850000Y-1500000D03*
X15850000Y1500000D03*
D11*
X13775000Y2250000D03*
X13775000Y-750000D03*
X13775000Y-2250000D03*
D12*
X16950000Y-3700000D03*
X14750000Y-3700000D03*
X14750000Y3700000D03*
X16950000Y3700000D03*
%TD*%
D13*
%TO.C,PAD5*%
X14500000Y-5500000D03*
%TD*%
%TO.C,PAD6*%
X14500000Y5500000D03*
%TD*%
D10*
%TO.C,T4*%
X-15850000Y1500000D03*
X-15850000Y-1500000D03*
D14*
X-13775000Y-2250000D03*
X-13775000Y750000D03*
X-13775000Y2250000D03*
D15*
X-16950000Y3700000D03*
X-14750000Y3700000D03*
X-14750000Y-3700000D03*
X-16950000Y-3700000D03*
%TD*%
D16*
%TO.C,PAD7*%
X-14500000Y5500000D03*
%TD*%
%TO.C,PAD8*%
X-14500000Y-5500000D03*
%TD*%
D17*
%TO.C,*%
X-13970000Y-7620000D03*
D18*
X-11430000Y-7620000D03*
X-8890000Y-7620000D03*
X-6350000Y-7620000D03*
X-3810000Y-7620000D03*
X-1270000Y-7620000D03*
X1270000Y-7620000D03*
X3810000Y-7620000D03*
X6350000Y-7620000D03*
X8890000Y-7620000D03*
X11430000Y-7620000D03*
X13970000Y-7620000D03*
X13970000Y7620000D03*
X11430000Y7620000D03*
X8890000Y7620000D03*
X6350000Y7620000D03*
X3810000Y7620000D03*
X1270000Y7620000D03*
X-1270000Y7620000D03*
X-3810000Y7620000D03*
X-6350000Y7620000D03*
X-8890000Y7620000D03*
X-11430000Y7620000D03*
X-13970000Y7620000D03*
%TD*%
M02*
