%TF.GenerationSoftware,KiCad,Pcbnew,(6.0.4)*%
%TF.CreationDate,2022-10-24T23:50:00-04:00*%
%TF.ProjectId,battpack,62617474-7061-4636-9b2e-6b696361645f,v1.0.0*%
%TF.SameCoordinates,Original*%
%TF.FileFunction,Legend,Top*%
%TF.FilePolarity,Positive*%
%FSLAX46Y46*%
G04 Gerber Fmt 4.6, Leading zero omitted, Abs format (unit mm)*
G04 Created by KiCad (PCBNEW (6.0.4)) date 2022-10-24 23:50:00*
%MOMM*%
%LPD*%
G01*
G04 APERTURE LIST*
%ADD10C,0.150000*%
%ADD11C,0.120000*%
%ADD12R,1.752600X1.752600*%
%ADD13C,1.752600*%
G04 APERTURE END LIST*
D10*
%TO.C,*%
%TO.C,PAD3*%
X15945238Y-7557142D02*
X16554761Y-7557142D01*
%TO.C,PAD4*%
X15945238Y-5557142D02*
X16554761Y-5557142D01*
X16250000Y-5861904D02*
X16250000Y-5252380D01*
%TO.C,T2*%
X20200000Y-1950000D02*
X20200000Y1950000D01*
X20200000Y0D02*
X20200000Y3300000D01*
X20200000Y3300000D02*
X17350000Y3300000D01*
X17350000Y3300000D02*
X17350000Y-3300000D01*
X17350000Y-3300000D02*
X20200000Y-3300000D01*
X20200000Y0D02*
X20200000Y-3300000D01*
D11*
%TO.C,B1*%
X16100000Y4900000D02*
X16100000Y4600000D01*
X16100000Y7100000D02*
X16100000Y7400000D01*
X16100000Y7400000D02*
X19400000Y7400000D01*
X19400000Y4600000D02*
X19400000Y4900000D01*
X16100000Y4600000D02*
X19400000Y4600000D01*
X19400000Y7400000D02*
X19400000Y7100000D01*
%TD*%
D12*
%TO.C,*%
X-13970000Y-7620000D03*
D13*
X-11430000Y-7620000D03*
X-8890000Y-7620000D03*
X-6350000Y-7620000D03*
X-3810000Y-7620000D03*
X-1270000Y-7620000D03*
X1270000Y-7620000D03*
X3810000Y-7620000D03*
X6350000Y-7620000D03*
X8890000Y-7620000D03*
X11430000Y-7620000D03*
X13970000Y-7620000D03*
X13970000Y7620000D03*
X11430000Y7620000D03*
X8890000Y7620000D03*
X6350000Y7620000D03*
X3810000Y7620000D03*
X1270000Y7620000D03*
X-1270000Y7620000D03*
X-3810000Y7620000D03*
X-6350000Y7620000D03*
X-8890000Y7620000D03*
X-11430000Y7620000D03*
X-13970000Y7620000D03*
%TD*%
M02*
