%TF.GenerationSoftware,KiCad,Pcbnew,(6.0.4)*%
%TF.CreationDate,2022-10-24T23:50:00-04:00*%
%TF.ProjectId,battpack,62617474-7061-4636-9b2e-6b696361645f,v1.0.0*%
%TF.SameCoordinates,Original*%
%TF.FileFunction,Copper,L2,Bot*%
%TF.FilePolarity,Positive*%
%FSLAX46Y46*%
G04 Gerber Fmt 4.6, Leading zero omitted, Abs format (unit mm)*
G04 Created by KiCad (PCBNEW (6.0.4)) date 2022-10-24 23:50:00*
%MOMM*%
%LPD*%
G01*
G04 APERTURE LIST*
%TA.AperFunction,ComponentPad*%
%ADD10R,1.752600X1.752600*%
%TD*%
%TA.AperFunction,ComponentPad*%
%ADD11C,1.752600*%
%TD*%
%TA.AperFunction,WasherPad*%
%ADD12C,1.000000*%
%TD*%
%TA.AperFunction,SMDPad,CuDef*%
%ADD13R,1.250000X0.900000*%
%TD*%
%TA.AperFunction,SMDPad,CuDef*%
%ADD14R,0.900000X0.900000*%
%TD*%
%TA.AperFunction,SMDPad,CuDef*%
%ADD15R,0.900000X1.700000*%
%TD*%
%TA.AperFunction,SMDPad,CuDef*%
%ADD16R,2.000000X1.000000*%
%TD*%
%TA.AperFunction,ViaPad*%
%ADD17C,0.800000*%
%TD*%
%TA.AperFunction,Conductor*%
%ADD18C,0.300000*%
%TD*%
G04 APERTURE END LIST*
D10*
%TO.P,,1*%
%TO.N,RAW*%
X-13970000Y-7620000D03*
D11*
%TO.P,,2*%
%TO.N,GND*%
X-11430000Y-7620000D03*
%TO.P,,3*%
%TO.N,RST*%
X-8890000Y-7620000D03*
%TO.P,,4*%
%TO.N,VCC*%
X-6350000Y-7620000D03*
%TO.P,,5*%
%TO.N,F4*%
X-3810000Y-7620000D03*
%TO.P,,6*%
%TO.N,F5*%
X-1270000Y-7620000D03*
%TO.P,,7*%
%TO.N,F6*%
X1270000Y-7620000D03*
%TO.P,,8*%
%TO.N,F7*%
X3810000Y-7620000D03*
%TO.P,,9*%
%TO.N,B1*%
X6350000Y-7620000D03*
%TO.P,,10*%
%TO.N,B3*%
X8890000Y-7620000D03*
%TO.P,,11*%
%TO.N,B2*%
X11430000Y-7620000D03*
%TO.P,,12*%
%TO.N,B6*%
X13970000Y-7620000D03*
%TO.P,,13*%
%TO.N,B5*%
X13970000Y7620000D03*
%TO.P,,14*%
%TO.N,B4*%
X11430000Y7620000D03*
%TO.P,,15*%
%TO.N,E6*%
X8890000Y7620000D03*
%TO.P,,16*%
%TO.N,D7*%
X6350000Y7620000D03*
%TO.P,,17*%
%TO.N,C6*%
X3810000Y7620000D03*
%TO.P,,18*%
%TO.N,D4*%
X1270000Y7620000D03*
%TO.P,,19*%
%TO.N,D0*%
X-1270000Y7620000D03*
%TO.P,,20*%
%TO.N,D1*%
X-3810000Y7620000D03*
%TO.P,,21*%
%TO.N,GND*%
X-6350000Y7620000D03*
%TO.P,,22*%
X-8890000Y7620000D03*
%TO.P,,23*%
%TO.N,D2*%
X-11430000Y7620000D03*
%TO.P,,24*%
%TO.N,D3*%
X-13970000Y7620000D03*
%TD*%
D12*
%TO.P,T1,*%
%TO.N,*%
X18850000Y-1500000D03*
X18850000Y1500000D03*
D13*
%TO.P,T1,1*%
%TO.N,BAT*%
X16775000Y2250000D03*
%TO.P,T1,2*%
%TO.N,GND*%
X16775000Y-750000D03*
%TO.P,T1,3*%
%TO.N,N/C*%
X16775000Y-2250000D03*
D14*
%TO.P,T1,*%
%TO.N,*%
X19950000Y-3700000D03*
X17750000Y-3700000D03*
X17750000Y3700000D03*
X19950000Y3700000D03*
%TD*%
D12*
%TO.P,T2,*%
%TO.N,*%
X18850000Y-1500000D03*
X18850000Y1500000D03*
%TD*%
D15*
%TO.P,B2,1*%
%TO.N,RST*%
X16050000Y-6000000D03*
%TO.P,B2,2*%
%TO.N,GND*%
X19450000Y-6000000D03*
%TD*%
D16*
%TO.P,PAD1,1*%
%TO.N,RAW*%
X18250000Y7500000D03*
%TD*%
%TO.P,PAD2,1*%
%TO.N,BAT*%
X18250000Y5500000D03*
%TD*%
D17*
%TO.N,RST*%
X13536005Y-739213D03*
%TO.N,RAW*%
X14285505Y759787D03*
%TO.N,GND*%
X15208924Y10287D03*
%TD*%
D18*
%TO.N,RST*%
X13536005Y-3486005D02*
X13536005Y-739213D01*
X16050000Y-6000000D02*
X13536005Y-3486005D01*
X-8890000Y-4014784D02*
X-8890000Y-7620000D01*
X13536005Y-739213D02*
X-5614429Y-739213D01*
X-5614429Y-739213D02*
X-8890000Y-4014784D01*
%TO.N,RAW*%
X14285505Y759787D02*
X-5590213Y759787D01*
X-5590213Y759787D02*
X-13970000Y-7620000D01*
X14285505Y3535505D02*
X14285505Y759787D01*
X18250000Y7500000D02*
X14285505Y3535505D01*
%TO.N,GND*%
X-11430000Y-5848356D02*
X-11430000Y-7620000D01*
X-5571357Y10287D02*
X-11430000Y-5848356D01*
X15208924Y10287D02*
X-5571357Y10287D01*
X19077852Y-526447D02*
X16998553Y-526447D01*
X19699521Y-1148116D02*
X19077852Y-526447D01*
X19150489Y-2400916D02*
X19699521Y-1851884D01*
X19699521Y-1851884D02*
X19699521Y-1148116D01*
X16998553Y-526447D02*
X16775000Y-750000D01*
X19150489Y-5700489D02*
X19150489Y-2400916D01*
X19450000Y-6000000D02*
X19150489Y-5700489D01*
X15969211Y-750000D02*
X15208924Y10287D01*
X16775000Y-750000D02*
X15969211Y-750000D01*
%TO.N,BAT*%
X17696751Y2250000D02*
X16775000Y2250000D01*
X18549511Y3102760D02*
X17696751Y2250000D01*
X18549511Y5200489D02*
X18549511Y3102760D01*
X18250000Y5500000D02*
X18549511Y5200489D01*
%TD*%
M02*
