%FSLAX45Y45*%
G04 Gerber Fmt 4.5, Leading zero omitted, Abs format (unit mm)*
G04 Created by KiCad (PCBNEW (6.0.6)) date 2022-10-25 19:30:20*
%MOMM*%
%LPD*%
G01*
G04 APERTURE LIST*
%TA.AperFunction,Profile*%
%ADD10C,0.150000*%
%TD*%
%ADD11C,0.200000*%
%ADD12C,0.040000*%
%ADD13C,0.109220*%
G04 APERTURE END LIST*
D10*
X4625000Y-4210000D02*
X4625000Y-5810000D01*
X4625000Y-5810000D02*
G75*
G03*
X4725000Y-5910000I100000J0D01*
G01*
X8049289Y-5909289D02*
G75*
G03*
X8149289Y-5809289I0J100000D01*
G01*
X8050000Y-4110000D02*
X4725000Y-4110000D01*
X8149289Y-5809289D02*
X8150000Y-4210000D01*
X4725000Y-5910000D02*
X8049289Y-5909289D01*
X4725000Y-4110000D02*
G75*
G03*
X4625000Y-4210000I0J-100000D01*
G01*
X8150000Y-4210000D02*
G75*
G03*
X8050000Y-4110000I-100000J0D01*
G01*
D11*
D12*
X5120000Y-4990000D02*
X5160000Y-5030000D01*
X5160000Y-4990000D02*
X5120000Y-5030000D01*
X5220000Y-4910000D02*
X5260000Y-4950000D01*
X5260000Y-4910000D02*
X5220000Y-4950000D01*
X7437350Y-5063921D02*
X7477350Y-5103921D01*
X7477350Y-5063921D02*
X7437350Y-5103921D01*
X7512300Y-4914021D02*
X7552300Y-4954021D01*
X7552300Y-4914021D02*
X7512300Y-4954021D01*
X7604642Y-4988971D02*
X7644642Y-5028971D01*
X7644642Y-4988971D02*
X7604642Y-5028971D01*
D13*
X5042610Y-4248000D02*
G75*
G03*
X5042610Y-4248000I-54610J0D01*
G01*
X5042610Y-5772000D02*
G75*
G03*
X5042610Y-5772000I-54610J0D01*
G01*
X5296610Y-4248000D02*
G75*
G03*
X5296610Y-4248000I-54610J0D01*
G01*
X5296610Y-5772000D02*
G75*
G03*
X5296610Y-5772000I-54610J0D01*
G01*
X5550610Y-4248000D02*
G75*
G03*
X5550610Y-4248000I-54610J0D01*
G01*
X5550610Y-5772000D02*
G75*
G03*
X5550610Y-5772000I-54610J0D01*
G01*
X5804610Y-4248000D02*
G75*
G03*
X5804610Y-4248000I-54610J0D01*
G01*
X5804610Y-5772000D02*
G75*
G03*
X5804610Y-5772000I-54610J0D01*
G01*
X6058610Y-4248000D02*
G75*
G03*
X6058610Y-4248000I-54610J0D01*
G01*
X6058610Y-5772000D02*
G75*
G03*
X6058610Y-5772000I-54610J0D01*
G01*
X6312610Y-4248000D02*
G75*
G03*
X6312610Y-4248000I-54610J0D01*
G01*
X6312610Y-5772000D02*
G75*
G03*
X6312610Y-5772000I-54610J0D01*
G01*
X6566610Y-4248000D02*
G75*
G03*
X6566610Y-4248000I-54610J0D01*
G01*
X6566610Y-5772000D02*
G75*
G03*
X6566610Y-5772000I-54610J0D01*
G01*
X6820610Y-4248000D02*
G75*
G03*
X6820610Y-4248000I-54610J0D01*
G01*
X6820610Y-5772000D02*
G75*
G03*
X6820610Y-5772000I-54610J0D01*
G01*
X7074610Y-4248000D02*
G75*
G03*
X7074610Y-4248000I-54610J0D01*
G01*
X7074610Y-5772000D02*
G75*
G03*
X7074610Y-5772000I-54610J0D01*
G01*
X7328610Y-4248000D02*
G75*
G03*
X7328610Y-4248000I-54610J0D01*
G01*
X7328610Y-5772000D02*
G75*
G03*
X7328610Y-5772000I-54610J0D01*
G01*
X7582610Y-4248000D02*
G75*
G03*
X7582610Y-4248000I-54610J0D01*
G01*
X7582610Y-5772000D02*
G75*
G03*
X7582610Y-5772000I-54610J0D01*
G01*
X7836610Y-4248000D02*
G75*
G03*
X7836610Y-4248000I-54610J0D01*
G01*
X7836610Y-5772000D02*
G75*
G03*
X7836610Y-5772000I-54610J0D01*
G01*
D11*
X4875119Y-6227976D02*
X4875119Y-6027976D01*
X4922738Y-6027976D01*
X4951310Y-6037500D01*
X4970357Y-6056548D01*
X4979881Y-6075595D01*
X4989405Y-6113690D01*
X4989405Y-6142262D01*
X4979881Y-6180357D01*
X4970357Y-6199405D01*
X4951310Y-6218452D01*
X4922738Y-6227976D01*
X4875119Y-6227976D01*
X5075119Y-6227976D02*
X5075119Y-6094643D01*
X5075119Y-6132738D02*
X5084643Y-6113690D01*
X5094167Y-6104167D01*
X5113214Y-6094643D01*
X5132262Y-6094643D01*
X5198929Y-6227976D02*
X5198929Y-6094643D01*
X5198929Y-6027976D02*
X5189405Y-6037500D01*
X5198929Y-6047024D01*
X5208452Y-6037500D01*
X5198929Y-6027976D01*
X5198929Y-6047024D01*
X5322738Y-6227976D02*
X5303690Y-6218452D01*
X5294167Y-6199405D01*
X5294167Y-6027976D01*
X5427500Y-6227976D02*
X5408452Y-6218452D01*
X5398929Y-6199405D01*
X5398929Y-6027976D01*
X5656071Y-6227976D02*
X5656071Y-6027976D01*
X5722738Y-6170833D01*
X5789405Y-6027976D01*
X5789405Y-6227976D01*
X5970357Y-6227976D02*
X5970357Y-6123214D01*
X5960833Y-6104167D01*
X5941786Y-6094643D01*
X5903690Y-6094643D01*
X5884643Y-6104167D01*
X5970357Y-6218452D02*
X5951309Y-6227976D01*
X5903690Y-6227976D01*
X5884643Y-6218452D01*
X5875119Y-6199405D01*
X5875119Y-6180357D01*
X5884643Y-6161309D01*
X5903690Y-6151786D01*
X5951309Y-6151786D01*
X5970357Y-6142262D01*
X6065595Y-6094643D02*
X6065595Y-6294643D01*
X6065595Y-6104167D02*
X6084643Y-6094643D01*
X6122738Y-6094643D01*
X6141786Y-6104167D01*
X6151309Y-6113690D01*
X6160833Y-6132738D01*
X6160833Y-6189881D01*
X6151309Y-6208928D01*
X6141786Y-6218452D01*
X6122738Y-6227976D01*
X6084643Y-6227976D01*
X6065595Y-6218452D01*
X6246548Y-6208928D02*
X6256071Y-6218452D01*
X6246548Y-6227976D01*
X6237024Y-6218452D01*
X6246548Y-6208928D01*
X6246548Y-6227976D01*
X6246548Y-6104167D02*
X6256071Y-6113690D01*
X6246548Y-6123214D01*
X6237024Y-6113690D01*
X6246548Y-6104167D01*
X6246548Y-6123214D01*
D12*
X4577500Y-6537500D02*
X4617500Y-6577500D01*
X4617500Y-6537500D02*
X4577500Y-6577500D01*
D11*
X4913214Y-6447976D02*
X4932262Y-6447976D01*
X4951310Y-6457500D01*
X4960833Y-6467024D01*
X4970357Y-6486071D01*
X4979881Y-6524167D01*
X4979881Y-6571786D01*
X4970357Y-6609881D01*
X4960833Y-6628928D01*
X4951310Y-6638452D01*
X4932262Y-6647976D01*
X4913214Y-6647976D01*
X4894167Y-6638452D01*
X4884643Y-6628928D01*
X4875119Y-6609881D01*
X4865595Y-6571786D01*
X4865595Y-6524167D01*
X4875119Y-6486071D01*
X4884643Y-6467024D01*
X4894167Y-6457500D01*
X4913214Y-6447976D01*
X5065595Y-6628928D02*
X5075119Y-6638452D01*
X5065595Y-6647976D01*
X5056071Y-6638452D01*
X5065595Y-6628928D01*
X5065595Y-6647976D01*
X5246548Y-6514643D02*
X5246548Y-6647976D01*
X5198929Y-6438452D02*
X5151310Y-6581309D01*
X5275119Y-6581309D01*
X5389405Y-6447976D02*
X5408452Y-6447976D01*
X5427500Y-6457500D01*
X5437024Y-6467024D01*
X5446548Y-6486071D01*
X5456071Y-6524167D01*
X5456071Y-6571786D01*
X5446548Y-6609881D01*
X5437024Y-6628928D01*
X5427500Y-6638452D01*
X5408452Y-6647976D01*
X5389405Y-6647976D01*
X5370357Y-6638452D01*
X5360833Y-6628928D01*
X5351310Y-6609881D01*
X5341786Y-6571786D01*
X5341786Y-6524167D01*
X5351310Y-6486071D01*
X5360833Y-6467024D01*
X5370357Y-6457500D01*
X5389405Y-6447976D01*
X5579881Y-6447976D02*
X5598928Y-6447976D01*
X5617976Y-6457500D01*
X5627500Y-6467024D01*
X5637024Y-6486071D01*
X5646548Y-6524167D01*
X5646548Y-6571786D01*
X5637024Y-6609881D01*
X5627500Y-6628928D01*
X5617976Y-6638452D01*
X5598928Y-6647976D01*
X5579881Y-6647976D01*
X5560833Y-6638452D01*
X5551310Y-6628928D01*
X5541786Y-6609881D01*
X5532262Y-6571786D01*
X5532262Y-6524167D01*
X5541786Y-6486071D01*
X5551310Y-6467024D01*
X5560833Y-6457500D01*
X5579881Y-6447976D01*
X5732262Y-6647976D02*
X5732262Y-6514643D01*
X5732262Y-6533690D02*
X5741786Y-6524167D01*
X5760833Y-6514643D01*
X5789405Y-6514643D01*
X5808452Y-6524167D01*
X5817976Y-6543214D01*
X5817976Y-6647976D01*
X5817976Y-6543214D02*
X5827500Y-6524167D01*
X5846548Y-6514643D01*
X5875119Y-6514643D01*
X5894167Y-6524167D01*
X5903690Y-6543214D01*
X5903690Y-6647976D01*
X5998928Y-6647976D02*
X5998928Y-6514643D01*
X5998928Y-6533690D02*
X6008452Y-6524167D01*
X6027500Y-6514643D01*
X6056071Y-6514643D01*
X6075119Y-6524167D01*
X6084643Y-6543214D01*
X6084643Y-6647976D01*
X6084643Y-6543214D02*
X6094167Y-6524167D01*
X6113214Y-6514643D01*
X6141786Y-6514643D01*
X6160833Y-6524167D01*
X6170357Y-6543214D01*
X6170357Y-6647976D01*
X6560833Y-6438452D02*
X6389405Y-6695595D01*
X6817976Y-6447976D02*
X6837024Y-6447976D01*
X6856071Y-6457500D01*
X6865595Y-6467024D01*
X6875119Y-6486071D01*
X6884643Y-6524167D01*
X6884643Y-6571786D01*
X6875119Y-6609881D01*
X6865595Y-6628928D01*
X6856071Y-6638452D01*
X6837024Y-6647976D01*
X6817976Y-6647976D01*
X6798928Y-6638452D01*
X6789405Y-6628928D01*
X6779881Y-6609881D01*
X6770357Y-6571786D01*
X6770357Y-6524167D01*
X6779881Y-6486071D01*
X6789405Y-6467024D01*
X6798928Y-6457500D01*
X6817976Y-6447976D01*
X6970357Y-6628928D02*
X6979881Y-6638452D01*
X6970357Y-6647976D01*
X6960833Y-6638452D01*
X6970357Y-6628928D01*
X6970357Y-6647976D01*
X7103690Y-6447976D02*
X7122738Y-6447976D01*
X7141786Y-6457500D01*
X7151309Y-6467024D01*
X7160833Y-6486071D01*
X7170357Y-6524167D01*
X7170357Y-6571786D01*
X7160833Y-6609881D01*
X7151309Y-6628928D01*
X7141786Y-6638452D01*
X7122738Y-6647976D01*
X7103690Y-6647976D01*
X7084643Y-6638452D01*
X7075119Y-6628928D01*
X7065595Y-6609881D01*
X7056071Y-6571786D01*
X7056071Y-6524167D01*
X7065595Y-6486071D01*
X7075119Y-6467024D01*
X7084643Y-6457500D01*
X7103690Y-6447976D01*
X7360833Y-6647976D02*
X7246548Y-6647976D01*
X7303690Y-6647976D02*
X7303690Y-6447976D01*
X7284643Y-6476548D01*
X7265595Y-6495595D01*
X7246548Y-6505119D01*
X7541786Y-6447976D02*
X7446548Y-6447976D01*
X7437024Y-6543214D01*
X7446548Y-6533690D01*
X7465595Y-6524167D01*
X7513214Y-6524167D01*
X7532262Y-6533690D01*
X7541786Y-6543214D01*
X7551309Y-6562262D01*
X7551309Y-6609881D01*
X7541786Y-6628928D01*
X7532262Y-6638452D01*
X7513214Y-6647976D01*
X7465595Y-6647976D01*
X7446548Y-6638452D01*
X7437024Y-6628928D01*
X7617976Y-6447976D02*
X7751309Y-6447976D01*
X7665595Y-6647976D01*
X7817976Y-6447976D02*
X7817976Y-6486071D01*
X7894167Y-6447976D02*
X7894167Y-6486071D01*
X8189405Y-6724167D02*
X8179881Y-6714643D01*
X8160833Y-6686071D01*
X8151309Y-6667024D01*
X8141786Y-6638452D01*
X8132262Y-6590833D01*
X8132262Y-6552738D01*
X8141786Y-6505119D01*
X8151309Y-6476548D01*
X8160833Y-6457500D01*
X8179881Y-6428928D01*
X8189405Y-6419405D01*
X8360833Y-6447976D02*
X8265595Y-6447976D01*
X8256071Y-6543214D01*
X8265595Y-6533690D01*
X8284643Y-6524167D01*
X8332262Y-6524167D01*
X8351309Y-6533690D01*
X8360833Y-6543214D01*
X8370357Y-6562262D01*
X8370357Y-6609881D01*
X8360833Y-6628928D01*
X8351309Y-6638452D01*
X8332262Y-6647976D01*
X8284643Y-6647976D01*
X8265595Y-6638452D01*
X8256071Y-6628928D01*
X8608452Y-6647976D02*
X8608452Y-6447976D01*
X8694167Y-6647976D02*
X8694167Y-6543214D01*
X8684643Y-6524167D01*
X8665595Y-6514643D01*
X8637024Y-6514643D01*
X8617976Y-6524167D01*
X8608452Y-6533690D01*
X8817976Y-6647976D02*
X8798929Y-6638452D01*
X8789405Y-6628928D01*
X8779881Y-6609881D01*
X8779881Y-6552738D01*
X8789405Y-6533690D01*
X8798929Y-6524167D01*
X8817976Y-6514643D01*
X8846548Y-6514643D01*
X8865595Y-6524167D01*
X8875119Y-6533690D01*
X8884643Y-6552738D01*
X8884643Y-6609881D01*
X8875119Y-6628928D01*
X8865595Y-6638452D01*
X8846548Y-6647976D01*
X8817976Y-6647976D01*
X8998929Y-6647976D02*
X8979881Y-6638452D01*
X8970357Y-6619405D01*
X8970357Y-6447976D01*
X9151310Y-6638452D02*
X9132262Y-6647976D01*
X9094167Y-6647976D01*
X9075119Y-6638452D01*
X9065595Y-6619405D01*
X9065595Y-6543214D01*
X9075119Y-6524167D01*
X9094167Y-6514643D01*
X9132262Y-6514643D01*
X9151310Y-6524167D01*
X9160833Y-6543214D01*
X9160833Y-6562262D01*
X9065595Y-6581309D01*
X9237024Y-6638452D02*
X9256071Y-6647976D01*
X9294167Y-6647976D01*
X9313214Y-6638452D01*
X9322738Y-6619405D01*
X9322738Y-6609881D01*
X9313214Y-6590833D01*
X9294167Y-6581309D01*
X9265595Y-6581309D01*
X9246548Y-6571786D01*
X9237024Y-6552738D01*
X9237024Y-6543214D01*
X9246548Y-6524167D01*
X9265595Y-6514643D01*
X9294167Y-6514643D01*
X9313214Y-6524167D01*
X9389405Y-6724167D02*
X9398929Y-6714643D01*
X9417976Y-6686071D01*
X9427500Y-6667024D01*
X9437024Y-6638452D01*
X9446548Y-6590833D01*
X9446548Y-6552738D01*
X9437024Y-6505119D01*
X9427500Y-6476548D01*
X9417976Y-6457500D01*
X9398929Y-6428928D01*
X9389405Y-6419405D01*
D13*
X4617500Y-6821500D02*
G75*
G03*
X4617500Y-6821500I-54610J0D01*
G01*
D11*
X4979881Y-6911976D02*
X4865595Y-6911976D01*
X4922738Y-6911976D02*
X4922738Y-6711976D01*
X4903690Y-6740548D01*
X4884643Y-6759595D01*
X4865595Y-6769119D01*
X5065595Y-6892928D02*
X5075119Y-6902452D01*
X5065595Y-6911976D01*
X5056071Y-6902452D01*
X5065595Y-6892928D01*
X5065595Y-6911976D01*
X5198929Y-6711976D02*
X5217976Y-6711976D01*
X5237024Y-6721500D01*
X5246548Y-6731024D01*
X5256071Y-6750071D01*
X5265595Y-6788167D01*
X5265595Y-6835786D01*
X5256071Y-6873881D01*
X5246548Y-6892928D01*
X5237024Y-6902452D01*
X5217976Y-6911976D01*
X5198929Y-6911976D01*
X5179881Y-6902452D01*
X5170357Y-6892928D01*
X5160833Y-6873881D01*
X5151310Y-6835786D01*
X5151310Y-6788167D01*
X5160833Y-6750071D01*
X5170357Y-6731024D01*
X5179881Y-6721500D01*
X5198929Y-6711976D01*
X5360833Y-6911976D02*
X5398929Y-6911976D01*
X5417976Y-6902452D01*
X5427500Y-6892928D01*
X5446548Y-6864357D01*
X5456071Y-6826262D01*
X5456071Y-6750071D01*
X5446548Y-6731024D01*
X5437024Y-6721500D01*
X5417976Y-6711976D01*
X5379881Y-6711976D01*
X5360833Y-6721500D01*
X5351310Y-6731024D01*
X5341786Y-6750071D01*
X5341786Y-6797690D01*
X5351310Y-6816738D01*
X5360833Y-6826262D01*
X5379881Y-6835786D01*
X5417976Y-6835786D01*
X5437024Y-6826262D01*
X5446548Y-6816738D01*
X5456071Y-6797690D01*
X5532262Y-6731024D02*
X5541786Y-6721500D01*
X5560833Y-6711976D01*
X5608452Y-6711976D01*
X5627500Y-6721500D01*
X5637024Y-6731024D01*
X5646548Y-6750071D01*
X5646548Y-6769119D01*
X5637024Y-6797690D01*
X5522738Y-6911976D01*
X5646548Y-6911976D01*
X5732262Y-6911976D02*
X5732262Y-6778643D01*
X5732262Y-6797690D02*
X5741786Y-6788167D01*
X5760833Y-6778643D01*
X5789405Y-6778643D01*
X5808452Y-6788167D01*
X5817976Y-6807214D01*
X5817976Y-6911976D01*
X5817976Y-6807214D02*
X5827500Y-6788167D01*
X5846548Y-6778643D01*
X5875119Y-6778643D01*
X5894167Y-6788167D01*
X5903690Y-6807214D01*
X5903690Y-6911976D01*
X5998928Y-6911976D02*
X5998928Y-6778643D01*
X5998928Y-6797690D02*
X6008452Y-6788167D01*
X6027500Y-6778643D01*
X6056071Y-6778643D01*
X6075119Y-6788167D01*
X6084643Y-6807214D01*
X6084643Y-6911976D01*
X6084643Y-6807214D02*
X6094167Y-6788167D01*
X6113214Y-6778643D01*
X6141786Y-6778643D01*
X6160833Y-6788167D01*
X6170357Y-6807214D01*
X6170357Y-6911976D01*
X6560833Y-6702452D02*
X6389405Y-6959595D01*
X6817976Y-6711976D02*
X6837024Y-6711976D01*
X6856071Y-6721500D01*
X6865595Y-6731024D01*
X6875119Y-6750071D01*
X6884643Y-6788167D01*
X6884643Y-6835786D01*
X6875119Y-6873881D01*
X6865595Y-6892928D01*
X6856071Y-6902452D01*
X6837024Y-6911976D01*
X6817976Y-6911976D01*
X6798928Y-6902452D01*
X6789405Y-6892928D01*
X6779881Y-6873881D01*
X6770357Y-6835786D01*
X6770357Y-6788167D01*
X6779881Y-6750071D01*
X6789405Y-6731024D01*
X6798928Y-6721500D01*
X6817976Y-6711976D01*
X6970357Y-6892928D02*
X6979881Y-6902452D01*
X6970357Y-6911976D01*
X6960833Y-6902452D01*
X6970357Y-6892928D01*
X6970357Y-6911976D01*
X7103690Y-6711976D02*
X7122738Y-6711976D01*
X7141786Y-6721500D01*
X7151309Y-6731024D01*
X7160833Y-6750071D01*
X7170357Y-6788167D01*
X7170357Y-6835786D01*
X7160833Y-6873881D01*
X7151309Y-6892928D01*
X7141786Y-6902452D01*
X7122738Y-6911976D01*
X7103690Y-6911976D01*
X7084643Y-6902452D01*
X7075119Y-6892928D01*
X7065595Y-6873881D01*
X7056071Y-6835786D01*
X7056071Y-6788167D01*
X7065595Y-6750071D01*
X7075119Y-6731024D01*
X7084643Y-6721500D01*
X7103690Y-6711976D01*
X7341786Y-6778643D02*
X7341786Y-6911976D01*
X7294167Y-6702452D02*
X7246548Y-6845309D01*
X7370357Y-6845309D01*
X7427500Y-6711976D02*
X7551309Y-6711976D01*
X7484643Y-6788167D01*
X7513214Y-6788167D01*
X7532262Y-6797690D01*
X7541786Y-6807214D01*
X7551309Y-6826262D01*
X7551309Y-6873881D01*
X7541786Y-6892928D01*
X7532262Y-6902452D01*
X7513214Y-6911976D01*
X7456071Y-6911976D01*
X7437024Y-6902452D01*
X7427500Y-6892928D01*
X7675119Y-6711976D02*
X7694167Y-6711976D01*
X7713214Y-6721500D01*
X7722738Y-6731024D01*
X7732262Y-6750071D01*
X7741786Y-6788167D01*
X7741786Y-6835786D01*
X7732262Y-6873881D01*
X7722738Y-6892928D01*
X7713214Y-6902452D01*
X7694167Y-6911976D01*
X7675119Y-6911976D01*
X7656071Y-6902452D01*
X7646548Y-6892928D01*
X7637024Y-6873881D01*
X7627500Y-6835786D01*
X7627500Y-6788167D01*
X7637024Y-6750071D01*
X7646548Y-6731024D01*
X7656071Y-6721500D01*
X7675119Y-6711976D01*
X7817976Y-6711976D02*
X7817976Y-6750071D01*
X7894167Y-6711976D02*
X7894167Y-6750071D01*
X8189405Y-6988167D02*
X8179881Y-6978643D01*
X8160833Y-6950071D01*
X8151309Y-6931024D01*
X8141786Y-6902452D01*
X8132262Y-6854833D01*
X8132262Y-6816738D01*
X8141786Y-6769119D01*
X8151309Y-6740548D01*
X8160833Y-6721500D01*
X8179881Y-6692928D01*
X8189405Y-6683405D01*
X8256071Y-6731024D02*
X8265595Y-6721500D01*
X8284643Y-6711976D01*
X8332262Y-6711976D01*
X8351309Y-6721500D01*
X8360833Y-6731024D01*
X8370357Y-6750071D01*
X8370357Y-6769119D01*
X8360833Y-6797690D01*
X8246548Y-6911976D01*
X8370357Y-6911976D01*
X8541786Y-6778643D02*
X8541786Y-6911976D01*
X8494167Y-6702452D02*
X8446548Y-6845309D01*
X8570357Y-6845309D01*
X8798929Y-6911976D02*
X8798929Y-6711976D01*
X8884643Y-6911976D02*
X8884643Y-6807214D01*
X8875119Y-6788167D01*
X8856071Y-6778643D01*
X8827500Y-6778643D01*
X8808452Y-6788167D01*
X8798929Y-6797690D01*
X9008452Y-6911976D02*
X8989405Y-6902452D01*
X8979881Y-6892928D01*
X8970357Y-6873881D01*
X8970357Y-6816738D01*
X8979881Y-6797690D01*
X8989405Y-6788167D01*
X9008452Y-6778643D01*
X9037024Y-6778643D01*
X9056071Y-6788167D01*
X9065595Y-6797690D01*
X9075119Y-6816738D01*
X9075119Y-6873881D01*
X9065595Y-6892928D01*
X9056071Y-6902452D01*
X9037024Y-6911976D01*
X9008452Y-6911976D01*
X9189405Y-6911976D02*
X9170357Y-6902452D01*
X9160833Y-6883405D01*
X9160833Y-6711976D01*
X9341786Y-6902452D02*
X9322738Y-6911976D01*
X9284643Y-6911976D01*
X9265595Y-6902452D01*
X9256071Y-6883405D01*
X9256071Y-6807214D01*
X9265595Y-6788167D01*
X9284643Y-6778643D01*
X9322738Y-6778643D01*
X9341786Y-6788167D01*
X9351310Y-6807214D01*
X9351310Y-6826262D01*
X9256071Y-6845309D01*
X9427500Y-6902452D02*
X9446548Y-6911976D01*
X9484643Y-6911976D01*
X9503690Y-6902452D01*
X9513214Y-6883405D01*
X9513214Y-6873881D01*
X9503690Y-6854833D01*
X9484643Y-6845309D01*
X9456071Y-6845309D01*
X9437024Y-6835786D01*
X9427500Y-6816738D01*
X9427500Y-6807214D01*
X9437024Y-6788167D01*
X9456071Y-6778643D01*
X9484643Y-6778643D01*
X9503690Y-6788167D01*
X9579881Y-6988167D02*
X9589405Y-6978643D01*
X9608452Y-6950071D01*
X9617976Y-6931024D01*
X9627500Y-6902452D01*
X9637024Y-6854833D01*
X9637024Y-6816738D01*
X9627500Y-6769119D01*
X9617976Y-6740548D01*
X9608452Y-6721500D01*
X9589405Y-6692928D01*
X9579881Y-6683405D01*
M02*
