%TF.GenerationSoftware,KiCad,Pcbnew,(6.0.6)*%
%TF.CreationDate,2022-10-25T19:30:22+11:00*%
%TF.ProjectId,battpack-double-ended,62617474-7061-4636-9b2d-646f75626c65,v1.0.0*%
%TF.SameCoordinates,Original*%
%TF.FileFunction,Legend,Top*%
%TF.FilePolarity,Positive*%
%FSLAX46Y46*%
G04 Gerber Fmt 4.6, Leading zero omitted, Abs format (unit mm)*
G04 Created by KiCad (PCBNEW (6.0.6)) date 2022-10-25 19:30:22*
%MOMM*%
%LPD*%
G01*
G04 APERTURE LIST*
%ADD10C,0.150000*%
%ADD11C,0.120000*%
%ADD12C,1.752600*%
%ADD13R,1.752600X1.752600*%
G04 APERTURE END LIST*
D10*
%TO.C,PAD4*%
X79838131Y-56550035D02*
X80447654Y-56550035D01*
%TO.C,PAD3*%
X79838131Y-58550035D02*
X80447654Y-58550035D01*
X80142893Y-58854797D02*
X80142893Y-58245273D01*
X47295238Y-41557142D02*
X47904761Y-41557142D01*
X47600000Y-41861904D02*
X47600000Y-41252380D01*
%TO.C,*%
%TO.C,PAD4*%
X47295238Y-43557142D02*
X47904761Y-43557142D01*
D11*
%TO.C,B1*%
X77376187Y-44200000D02*
X77376187Y-44500000D01*
X74076187Y-46700000D02*
X74076187Y-47000000D01*
X74076187Y-47000000D02*
X77376187Y-47000000D01*
X77376187Y-47000000D02*
X77376187Y-46700000D01*
X74076187Y-44200000D02*
X77376187Y-44200000D01*
X74076187Y-44500000D02*
X74076187Y-44200000D01*
D10*
%TO.C,T2*%
X81237500Y-50100000D02*
X81237500Y-46800000D01*
X78387500Y-53400000D02*
X81237500Y-53400000D01*
X81237500Y-46800000D02*
X78387500Y-46800000D01*
X78387500Y-46800000D02*
X78387500Y-53400000D01*
X81237500Y-50100000D02*
X81237500Y-53400000D01*
X81237500Y-52050000D02*
X81237500Y-48150000D01*
X46467752Y-50050000D02*
X46467752Y-53350000D01*
X49317752Y-46750000D02*
X46467752Y-46750000D01*
X46467752Y-53350000D02*
X49317752Y-53350000D01*
X49317752Y-53350000D02*
X49317752Y-46750000D01*
X46467752Y-50050000D02*
X46467752Y-46750000D01*
X46467752Y-48100000D02*
X46467752Y-52000000D01*
%TD*%
D12*
%TO.C,*%
X49880000Y-42480000D03*
X52420000Y-42480000D03*
X54960000Y-42480000D03*
X57500000Y-42480000D03*
X60040000Y-42480000D03*
X62580000Y-42480000D03*
X65120000Y-42480000D03*
X67660000Y-42480000D03*
X70200000Y-42480000D03*
X72740000Y-42480000D03*
X75280000Y-42480000D03*
X77820000Y-42480000D03*
X77820000Y-57720000D03*
X75280000Y-57720000D03*
X72740000Y-57720000D03*
X70200000Y-57720000D03*
X67660000Y-57720000D03*
X65120000Y-57720000D03*
X62580000Y-57720000D03*
X60040000Y-57720000D03*
X57500000Y-57720000D03*
X54960000Y-57720000D03*
X52420000Y-57720000D03*
D13*
X49880000Y-57720000D03*
%TD*%
M02*
