%TF.GenerationSoftware,KiCad,Pcbnew,(6.0.6)*%
%TF.CreationDate,2022-10-25T17:15:21+11:00*%
%TF.ProjectId,battpack-double-ended,62617474-7061-4636-9b2d-646f75626c65,v1.0.0*%
%TF.SameCoordinates,Original*%
%TF.FileFunction,Copper,L1,Top*%
%TF.FilePolarity,Positive*%
%FSLAX46Y46*%
G04 Gerber Fmt 4.6, Leading zero omitted, Abs format (unit mm)*
G04 Created by KiCad (PCBNEW (6.0.6)) date 2022-10-25 17:15:21*
%MOMM*%
%LPD*%
G01*
G04 APERTURE LIST*
%TA.AperFunction,SMDPad,CuDef*%
%ADD10R,0.900000X1.700000*%
%TD*%
%TA.AperFunction,SMDPad,CuDef*%
%ADD11R,2.000000X1.000000*%
%TD*%
%TA.AperFunction,WasherPad*%
%ADD12C,1.000000*%
%TD*%
%TA.AperFunction,SMDPad,CuDef*%
%ADD13R,0.900000X0.900000*%
%TD*%
%TA.AperFunction,SMDPad,CuDef*%
%ADD14R,1.250000X0.900000*%
%TD*%
%TA.AperFunction,ComponentPad*%
%ADD15R,1.752600X1.752600*%
%TD*%
%TA.AperFunction,ComponentPad*%
%ADD16C,1.752600*%
%TD*%
%TA.AperFunction,ViaPad*%
%ADD17C,0.800000*%
%TD*%
%TA.AperFunction,Conductor*%
%ADD18C,0.300000*%
%TD*%
%TA.AperFunction,Conductor*%
%ADD19C,0.250000*%
%TD*%
G04 APERTURE END LIST*
D10*
%TO.P,B1,1*%
%TO.N,RST*%
X79900000Y-44100000D03*
%TO.P,B1,2*%
%TO.N,GND*%
X83300000Y-44100000D03*
%TD*%
D11*
%TO.P,PAD4,1*%
%TO.N,BAT*%
X82100000Y-55600000D03*
%TD*%
D12*
%TO.P,T2,*%
%TO.N,*%
X82700000Y-51600000D03*
D13*
X83800000Y-53800000D03*
X81600000Y-53800000D03*
D12*
X82700000Y-48600000D03*
D13*
X81600000Y-46400000D03*
X83800000Y-46400000D03*
D14*
%TO.P,T2,1*%
%TO.N,BAT*%
X80625000Y-52350000D03*
%TO.P,T2,2*%
%TO.N,GND*%
X80625000Y-49350000D03*
%TO.P,T2,3*%
%TO.N,N/C*%
X80625000Y-47850000D03*
%TD*%
D11*
%TO.P,PAD3,1*%
%TO.N,RAW*%
X82100000Y-57600000D03*
%TD*%
D12*
%TO.P,T2,*%
%TO.N,*%
X47817752Y-48550000D03*
D13*
X46717752Y-46350000D03*
X48917752Y-46350000D03*
D12*
X47817752Y-51550000D03*
D13*
X48917752Y-53750000D03*
X46717752Y-53750000D03*
D14*
%TO.P,T2,1*%
%TO.N,BAT*%
X49892752Y-47800000D03*
%TO.P,T2,2*%
%TO.N,GND*%
X49892752Y-50800000D03*
%TO.P,T2,3*%
%TO.N,N/C*%
X49892752Y-52300000D03*
%TD*%
D11*
%TO.P,PAD3,1*%
%TO.N,RAW*%
X47600000Y-42550000D03*
%TD*%
D15*
%TO.P,,1*%
%TO.N,RAW*%
X49880000Y-57720000D03*
D16*
%TO.P,,2*%
%TO.N,GND*%
X52420000Y-57720000D03*
%TO.P,,3*%
%TO.N,RST*%
X54960000Y-57720000D03*
%TO.P,,4*%
%TO.N,VCC*%
X57500000Y-57720000D03*
%TO.P,,5*%
%TO.N,F4*%
X60040000Y-57720000D03*
%TO.P,,6*%
%TO.N,F5*%
X62580000Y-57720000D03*
%TO.P,,7*%
%TO.N,F6*%
X65120000Y-57720000D03*
%TO.P,,8*%
%TO.N,F7*%
X67660000Y-57720000D03*
%TO.P,,9*%
%TO.N,B1*%
X70200000Y-57720000D03*
%TO.P,,10*%
%TO.N,B3*%
X72740000Y-57720000D03*
%TO.P,,11*%
%TO.N,B2*%
X75280000Y-57720000D03*
%TO.P,,12*%
%TO.N,B6*%
X77820000Y-57720000D03*
%TO.P,,13*%
%TO.N,B5*%
X77820000Y-42480000D03*
%TO.P,,14*%
%TO.N,B4*%
X75280000Y-42480000D03*
%TO.P,,15*%
%TO.N,E6*%
X72740000Y-42480000D03*
%TO.P,,16*%
%TO.N,D7*%
X70200000Y-42480000D03*
%TO.P,,17*%
%TO.N,C6*%
X67660000Y-42480000D03*
%TO.P,,18*%
%TO.N,D4*%
X65120000Y-42480000D03*
%TO.P,,19*%
%TO.N,D0*%
X62580000Y-42480000D03*
%TO.P,,20*%
%TO.N,D1*%
X60040000Y-42480000D03*
%TO.P,,21*%
%TO.N,GND*%
X57500000Y-42480000D03*
%TO.P,,22*%
X54960000Y-42480000D03*
%TO.P,,23*%
%TO.N,D2*%
X52420000Y-42480000D03*
%TO.P,,24*%
%TO.N,D3*%
X49880000Y-42480000D03*
%TD*%
D11*
%TO.P,PAD4,1*%
%TO.N,BAT*%
X47600000Y-44550000D03*
%TD*%
D12*
%TO.P,T1,*%
%TO.N,*%
X82700000Y-51600000D03*
X82700000Y-48600000D03*
%TD*%
%TO.P,T1,*%
%TO.N,*%
X47817752Y-48550000D03*
X47817752Y-51550000D03*
%TD*%
D17*
%TO.N,RAW*%
X52400000Y-49300000D03*
X78135505Y-49340213D03*
%TO.N,GND*%
X51400000Y-50100000D03*
X79058924Y-50089713D03*
%TO.N,RST*%
X77386005Y-50839213D03*
%TD*%
D18*
%TO.N,RAW*%
X78135505Y-49340213D02*
X78135505Y-54135505D01*
X52382247Y-49282247D02*
X52382247Y-46964495D01*
X81600000Y-57600000D02*
X82100000Y-57600000D01*
X48550000Y-43500000D02*
X47600000Y-42550000D01*
X48917752Y-43500000D02*
X48550000Y-43500000D01*
X78135505Y-54135505D02*
X81600000Y-57600000D01*
X52382247Y-46964495D02*
X48917752Y-43500000D01*
X52400000Y-49300000D02*
X52382247Y-49282247D01*
%TO.N,GND*%
X52420000Y-57720000D02*
X52420000Y-51120000D01*
X83300000Y-44100000D02*
X83000489Y-44399511D01*
X82819446Y-49715011D02*
X80990011Y-49715011D01*
X49527741Y-50434989D02*
X49892752Y-50800000D01*
X50719115Y-50800000D02*
X49892752Y-50800000D01*
X83587657Y-48286252D02*
X83587657Y-48946800D01*
X83000489Y-44399511D02*
X83000489Y-47699084D01*
X79058924Y-50089713D02*
X79798637Y-49350000D01*
X51458828Y-50060287D02*
X50719115Y-50800000D01*
X79798637Y-49350000D02*
X80625000Y-49350000D01*
X52420000Y-51120000D02*
X51400000Y-50100000D01*
X80990011Y-49715011D02*
X80625000Y-49350000D01*
X83000489Y-47699084D02*
X83587657Y-48286252D01*
X83587657Y-48946800D02*
X82819446Y-49715011D01*
%TO.N,RST*%
X77386005Y-50839213D02*
X77386005Y-46613995D01*
X77386005Y-46613995D02*
X79900000Y-44100000D01*
D19*
%TO.N,BAT*%
X48143241Y-47124511D02*
X48818730Y-47800000D01*
X82374511Y-53025489D02*
X81699022Y-52350000D01*
X48143241Y-44824511D02*
X48143241Y-47124511D01*
X81699022Y-52350000D02*
X80625000Y-52350000D01*
X82374511Y-55325489D02*
X82374511Y-53025489D01*
X82100000Y-55600000D02*
X82374511Y-55325489D01*
X48818730Y-47800000D02*
X49892752Y-47800000D01*
X48417752Y-44550000D02*
X48143241Y-44824511D01*
%TD*%
M02*
