%TF.GenerationSoftware,KiCad,Pcbnew,(6.0.6)*%
%TF.CreationDate,2022-10-25T19:30:22+11:00*%
%TF.ProjectId,battpack-double-ended,62617474-7061-4636-9b2d-646f75626c65,v1.0.0*%
%TF.SameCoordinates,Original*%
%TF.FileFunction,Soldermask,Top*%
%TF.FilePolarity,Negative*%
%FSLAX46Y46*%
G04 Gerber Fmt 4.6, Leading zero omitted, Abs format (unit mm)*
G04 Created by KiCad (PCBNEW (6.0.6)) date 2022-10-25 19:30:22*
%MOMM*%
%LPD*%
G01*
G04 APERTURE LIST*
G04 Aperture macros list*
%AMRoundRect*
0 Rectangle with rounded corners*
0 $1 Rounding radius*
0 $2 $3 $4 $5 $6 $7 $8 $9 X,Y pos of 4 corners*
0 Add a 4 corners polygon primitive as box body*
4,1,4,$2,$3,$4,$5,$6,$7,$8,$9,$2,$3,0*
0 Add four circle primitives for the rounded corners*
1,1,$1+$1,$2,$3*
1,1,$1+$1,$4,$5*
1,1,$1+$1,$6,$7*
1,1,$1+$1,$8,$9*
0 Add four rect primitives between the rounded corners*
20,1,$1+$1,$2,$3,$4,$5,0*
20,1,$1+$1,$4,$5,$6,$7,0*
20,1,$1+$1,$6,$7,$8,$9,0*
20,1,$1+$1,$8,$9,$2,$3,0*%
G04 Aperture macros list end*
%ADD10RoundRect,0.050000X-0.450000X-0.850000X0.450000X-0.850000X0.450000X0.850000X-0.450000X0.850000X0*%
%ADD11RoundRect,0.050000X-1.000000X-0.500000X1.000000X-0.500000X1.000000X0.500000X-1.000000X0.500000X0*%
%ADD12C,1.100000*%
%ADD13RoundRect,0.050000X-0.450000X0.450000X-0.450000X-0.450000X0.450000X-0.450000X0.450000X0.450000X0*%
%ADD14RoundRect,0.050000X-0.625000X0.450000X-0.625000X-0.450000X0.625000X-0.450000X0.625000X0.450000X0*%
%ADD15RoundRect,0.050000X0.450000X-0.450000X0.450000X0.450000X-0.450000X0.450000X-0.450000X-0.450000X0*%
%ADD16RoundRect,0.050000X0.625000X-0.450000X0.625000X0.450000X-0.625000X0.450000X-0.625000X-0.450000X0*%
%ADD17RoundRect,0.050000X1.000000X0.500000X-1.000000X0.500000X-1.000000X-0.500000X1.000000X-0.500000X0*%
%ADD18C,1.852600*%
%ADD19RoundRect,0.050000X-0.876300X-0.876300X0.876300X-0.876300X0.876300X0.876300X-0.876300X0.876300X0*%
G04 APERTURE END LIST*
D10*
%TO.C,B1*%
X74026187Y-45600000D03*
X77426187Y-45600000D03*
%TD*%
D11*
%TO.C,PAD4*%
X80142893Y-55592893D03*
%TD*%
D12*
%TO.C,T2*%
X79887500Y-51600000D03*
D13*
X80987500Y-53800000D03*
X78787500Y-53800000D03*
D12*
X79887500Y-48600000D03*
D13*
X78787500Y-46400000D03*
X80987500Y-46400000D03*
D14*
X77812500Y-52350000D03*
X77812500Y-49350000D03*
X77812500Y-47850000D03*
%TD*%
D11*
%TO.C,PAD3*%
X80142893Y-57592893D03*
%TD*%
D12*
%TO.C,T2*%
X47817752Y-48550000D03*
D15*
X46717752Y-46350000D03*
X48917752Y-46350000D03*
D12*
X47817752Y-51550000D03*
D15*
X48917752Y-53750000D03*
X46717752Y-53750000D03*
D16*
X49892752Y-47800000D03*
X49892752Y-50800000D03*
X49892752Y-52300000D03*
%TD*%
D17*
%TO.C,PAD3*%
X47600000Y-42550000D03*
%TD*%
D18*
%TO.C,*%
X49880000Y-42480000D03*
X52420000Y-42480000D03*
X54960000Y-42480000D03*
X57500000Y-42480000D03*
X60040000Y-42480000D03*
X62580000Y-42480000D03*
X65120000Y-42480000D03*
X67660000Y-42480000D03*
X70200000Y-42480000D03*
X72740000Y-42480000D03*
X75280000Y-42480000D03*
X77820000Y-42480000D03*
X77820000Y-57720000D03*
X75280000Y-57720000D03*
X72740000Y-57720000D03*
X70200000Y-57720000D03*
X67660000Y-57720000D03*
X65120000Y-57720000D03*
X62580000Y-57720000D03*
X60040000Y-57720000D03*
X57500000Y-57720000D03*
X54960000Y-57720000D03*
X52420000Y-57720000D03*
D19*
X49880000Y-57720000D03*
%TD*%
D17*
%TO.C,PAD4*%
X47600000Y-44550000D03*
%TD*%
D12*
%TO.C,T1*%
X79900000Y-51600000D03*
X79900000Y-48600000D03*
%TD*%
%TO.C,T1*%
X47817752Y-48550000D03*
X47817752Y-51550000D03*
%TD*%
M02*
